<svg width="145" height="46" viewBox="0 0 145 46" fill="none" xmlns="http://www.w3.org/2000/svg">
<path d="M59.462 34V32.028L71.226 15.13H60.04V12.104H75.986V14.382L64.324 31.144H76.156V34H59.462ZM87.4166 34.34C84.5153 34.34 82.3846 33.6147 81.0246 32.164C79.6873 30.7133 79.0186 28.6393 79.0186 25.942C79.0186 23.2447 79.6986 21.1707 81.0586 19.72C82.4186 18.2693 84.538 17.544 87.4166 17.544C90.318 17.544 92.4486 18.2693 93.8086 19.72C95.1686 21.1707 95.8486 23.2447 95.8486 25.942C95.8486 28.6393 95.1686 30.7133 93.8086 32.164C92.4713 33.6147 90.3406 34.34 87.4166 34.34ZM87.4166 31.212C89.1166 31.212 90.318 30.804 91.0206 29.988C91.746 29.1493 92.1086 27.8007 92.1086 25.942C92.1086 24.0833 91.746 22.746 91.0206 21.93C90.318 21.114 89.1166 20.706 87.4166 20.706C85.7393 20.706 84.538 21.114 83.8126 21.93C83.11 22.746 82.7586 24.0833 82.7586 25.942C82.7586 27.8007 83.11 29.1493 83.8126 29.988C84.538 30.804 85.7393 31.212 87.4166 31.212ZM99.4545 34V17.884H102.855L103.059 19.754C103.829 19.2553 104.747 18.802 105.812 18.394C106.878 17.986 107.932 17.7027 108.975 17.544V20.366C108.34 20.4793 107.649 20.6493 106.901 20.876C106.175 21.08 105.484 21.318 104.827 21.59C104.169 21.8393 103.614 22.1 103.161 22.372V34H99.4545ZM115.676 34.34C114.656 34.34 113.704 34.1587 112.82 33.796C111.959 33.4333 111.267 32.8893 110.746 32.164C110.225 31.416 109.964 30.498 109.964 29.41C109.964 27.8687 110.485 26.6333 111.528 25.704C112.593 24.752 114.225 24.276 116.424 24.276H121.592V23.562C121.592 22.7913 121.467 22.1793 121.218 21.726C120.991 21.2727 120.561 20.944 119.926 20.74C119.314 20.536 118.407 20.434 117.206 20.434C115.302 20.434 113.523 20.7173 111.868 21.284V18.53C112.593 18.2353 113.477 17.9973 114.52 17.816C115.563 17.6347 116.685 17.544 117.886 17.544C120.243 17.544 122.034 18.02 123.258 18.972C124.505 19.924 125.128 21.4767 125.128 23.63V34H121.966L121.728 32.368C121.071 33.0027 120.255 33.49 119.28 33.83C118.328 34.17 117.127 34.34 115.676 34.34ZM116.662 31.688C117.773 31.688 118.736 31.5067 119.552 31.144C120.391 30.7587 121.071 30.2487 121.592 29.614V26.792H116.492C115.404 26.792 114.611 27.0073 114.112 27.438C113.636 27.846 113.398 28.4807 113.398 29.342C113.398 30.1807 113.681 30.7813 114.248 31.144C114.815 31.5067 115.619 31.688 116.662 31.688ZM127.252 34L133.406 25.806L127.49 17.884H131.468L135.412 23.256L139.356 17.884H143.334L137.452 25.806L143.572 34H139.56L135.412 28.39L131.264 34H127.252Z" fill="white"/>
<path fill-rule="evenodd" clip-rule="evenodd" d="M31.05 0L46 14.95V31.05L31.05 46H14.95L0 31.05L8.05 23L0 14.95L14.95 0H31.05ZM31.05 0L8.05 23L31.05 46V0Z" fill="#C9F31D"/>
</svg>
