<svg width="107" height="107" viewBox="0 0 107 107" fill="none" xmlns="http://www.w3.org/2000/svg">
<g filter="url(#filter0_d_3_113)">
<rect x="36" width="72" height="72" rx="36" transform="rotate(30 36 0)" fill="white" shape-rendering="crispEdges"/>
<rect x="35.817" y="-0.683013" width="73" height="73" rx="36.5" transform="rotate(30 35.817 -0.683013)" stroke="#111111" stroke-opacity="0.04" shape-rendering="crispEdges"/>
</g>
<path d="M42.7885 23.0421L27.515 56.2723L38.6662 67.3825L53.8576 71.4841L75.0049 41.6423L42.7885 23.0421Z" fill="#2196F3"/>
<path d="M62.777 48.3329L60.1192 52.0808L52.1439 63.3115L42.5294 60.6893L42.5212 60.6876L35.4489 53.6727L38.4525 47.1256L42.5394 49.4852L40.9832 52.8821L44.8462 56.6658L44.8498 56.665L50.065 58.1225L53.783 53.1121L39.4758 44.9015L41.19 40.9972L56.3209 49.5082L58.893 45.7547L43.1289 36.7088L44.9746 32.9009L65.3722 44.6775L62.777 48.3329Z" fill="#FAFAFA"/>
<defs>
<filter id="filter0_d_3_113" x="4.17078" y="4.17075" width="102.012" height="102.012" filterUnits="userSpaceOnUse" color-interpolation-filters="sRGB">
<feFlood flood-opacity="0" result="BackgroundImageFix"/>
<feColorMatrix in="SourceAlpha" type="matrix" values="0 0 0 0 0 0 0 0 0 0 0 0 0 0 0 0 0 0 127 0" result="hardAlpha"/>
<feOffset dx="6" dy="6"/>
<feGaussianBlur stdDeviation="7"/>
<feComposite in2="hardAlpha" operator="out"/>
<feColorMatrix type="matrix" values="0 0 0 0 0.0666667 0 0 0 0 0.0666667 0 0 0 0 0.0666667 0 0 0 0.08 0"/>
<feBlend mode="normal" in2="BackgroundImageFix" result="effect1_dropShadow_3_113"/>
<feBlend mode="normal" in="SourceGraphic" in2="effect1_dropShadow_3_113" result="shape"/>
</filter>
</defs>
</svg>
