<svg width="144" height="123" viewBox="0 0 144 123" fill="none" xmlns="http://www.w3.org/2000/svg">
<g filter="url(#filter0_d_3_119)">
<rect x="6.02692" y="48.1783" width="114" height="67" rx="33.5" transform="rotate(-24.8665 6.02692 48.1783)" fill="white"/>
</g>
<g clip-path="url(#clip0_3_119)">
<path d="M55.5367 59.3431C54.6423 60.4694 52.7786 64.5308 52.5464 65.5849C52.2913 66.6496 51.5425 65.521 51.2429 63.2074C50.9873 61.3463 51.2375 58.5398 52.5035 55.6441C53.2515 53.9652 55.2821 51.0972 56.5436 49.3856C56.7961 49.0314 60.3031 44.9723 63.7942 42.1326C64.092 41.8755 63.6658 42.9314 63.7325 43.3732C63.9985 45.4955 55.8233 58.9434 55.8233 58.9434L55.5367 59.3431ZM82.6308 73.8129C83.4479 75.028 83.3103 75.2104 82.1093 75.9774C80.9082 76.7444 79.7331 76.6716 79.2317 76.4917C78.7301 76.3116 78.3108 75.591 78.3367 74.7514C78.3387 74.2183 78.4766 73.9767 78.3419 73.3893C78.2184 72.8262 78.2533 72.6621 78.2541 72.4253C78.2661 72.2126 78.2099 72.0319 77.678 70.8317C77.1462 69.6315 76.0817 67.4085 75.7546 66.4084C75.4162 65.384 80.028 64.9476 80.028 64.9476C80.028 64.9476 80.2453 67.8611 80.2769 68.5853C80.3084 69.3097 80.8747 70.4642 80.9879 70.707C81.1011 70.9498 81.2361 71.4779 81.1788 71.5343C81.1215 71.5904 81.7131 72.0831 81.7456 72.5114C81.8127 72.894 82.5175 73.6294 82.6308 73.8129ZM66.8298 35.9879C66.2624 35.1293 65.5505 33.2442 65.5975 32.8678C65.7842 31.7757 68.7568 30.2714 69.8499 30.9439C70.328 31.253 70.7806 32.2834 71.0406 32.9602C71.3005 33.637 71.7971 35.1198 71.9894 35.5919C72.1251 35.9424 69.0589 38.0223 67.8971 37.4409C67.5781 37.2942 66.8298 35.9879 66.8298 35.9879ZM89.7634 67.6199C91.6562 68.0379 92.8212 67.731 93.7111 67.789C94.601 67.847 94.7691 68.6849 93.6821 69.4578C92.8124 70.0997 91.1223 70.4149 90.1164 70.884C89.1104 71.353 86.9264 72.5193 86.1282 72.3596C85.2047 72.1696 85.0602 71.084 85.0602 71.084C84.9942 70.4647 84.8965 69.0617 84.3065 68.1546C83.7166 67.2475 83.2845 66.7987 82.5227 66.0603C81.7609 65.3219 80.4793 63.2299 80.7428 62.9592C81.0063 62.6884 80.9713 62.8526 81.4282 62.7577C81.8849 62.6628 82.4102 62.5954 83.3019 62.1796C84.1935 61.7638 85.1086 61.1596 85.4177 60.9269C85.7267 60.6942 85.967 60.4933 86.2036 61.2994C86.4403 62.1053 86.754 63.6733 87.2405 64.7765C87.7272 65.8797 88.3159 67.1422 88.4864 67.3287C88.6567 67.5152 89.273 67.5235 89.7634 67.6199Z" fill="#010101"/>
<path d="M69.7904 37.5629C68.3511 41.0421 63.7756 43.9441 57.9322 50.2749C56.4312 51.8911 52.5458 56.4518 52.455 59.3612C55.3126 55.0435 58.3723 57.7251 60.3113 61.0476C62.1254 64.1624 64.4498 65.1476 68.3369 63.2166C72.3384 61.2326 74.739 63.1575 77.2292 65.5729C74.1594 53.3191 76.6157 49.5137 77.9618 46.551C80.8041 40.2303 71.5774 35.7246 69.7904 37.5629Z" fill="#8AC640"/>
<path d="M69.791 37.5628C64.7967 42.6109 59.0899 45.9519 54.2108 53.8135C53.0512 55.6843 50.685 59.8023 52.2068 64.8566C53.3635 60.652 57.5189 54.1035 63.6457 48.3203C66.7377 45.4006 69.0391 43.3521 71.6629 40.5029C70.7098 39.0555 70.4268 38.4486 69.791 37.5628Z" fill="#8AC640"/>
<path d="M83.6992 47.2749C83.6992 47.2749 84.0007 49.0556 83.3697 49.9706C83.3697 49.9706 82.8427 50.5119 81.2115 50.3563C80.7439 50.3084 80.1186 49.6837 80.0281 49.4302C79.7793 48.8368 79.9977 48.4099 79.9977 48.4099C79.9977 48.4099 80.0579 47.5837 80.5035 47.4055C80.9493 47.2271 81.7149 46.9587 81.8416 46.6336C81.934 46.2949 83.3713 46.4523 83.6992 47.2749ZM67.2501 36.3536C67.2501 36.3536 67.7362 37.6345 67.9384 38.4859C67.9834 38.6424 67.3315 39.0349 66.9304 39.4881C69.2492 41.9536 75.0222 39.2321 75.1087 37.4479C74.6184 37.3514 73.6943 37.2798 73.2835 37.2941C72.8725 37.3083 72.9068 37.3219 72.5669 36.6528C72.2271 35.9836 71.5926 34.7425 71.3883 34.4239C71.1841 34.1053 67.6403 35.7578 67.2501 36.3536Z" fill="#010101"/>
<path d="M67.4789 36.2466C67.4789 36.2466 67.8072 36.9507 68.0556 37.6625C68.18 37.9887 68.2476 38.1936 68.3152 38.4577C68.3603 38.6141 69.4321 38.8235 70.2608 40.0037C72.5695 42.0897 74.5074 39.6195 74.9816 37.891C74.4913 37.7944 73.727 37.7075 72.9054 37.736C72.4944 37.7502 72.5073 37.36 72.1675 36.6909C71.8277 36.0218 71.272 35.0689 71.0565 34.7261C70.8408 34.3834 67.8691 35.6508 67.4789 36.2466Z" fill="#F0EFEF"/>
<path d="M67.2507 36.353C67.2507 36.353 67.4316 36.8007 67.6008 37.3425C68.0451 37.5194 68.6376 37.7752 69.0595 37.9037C69.3558 38.0021 69.8473 37.7433 70.3047 37.53C70.7162 37.3381 71.1047 37.216 71.2195 37.0444C71.4948 36.6794 71.7942 35.9488 71.9215 35.4459C71.695 35.0196 71.4796 34.6175 71.3662 34.4339C71.1846 34.1047 67.6408 35.7572 67.2507 36.353Z" fill="#010101"/>
<path d="M70.191 37.2285C69.9166 37.3565 69.5852 37.4815 69.3111 37.5502C69.1854 37.5793 69.0372 37.5597 68.923 37.5538C68.7063 37.507 68.4784 37.4361 68.2277 37.3755C67.726 37.2548 67.6239 37.0955 67.59 37.0228C67.0368 35.4185 66.2309 34.2278 66.2309 34.2278C66.2309 34.2278 65.7652 33.6469 66.5547 33.0718C67.3442 32.4967 67.8588 32.2273 67.8588 32.2273C67.8588 32.2273 68.4076 31.9714 69.344 31.7711C70.292 31.536 70.4377 32.2662 70.4377 32.2662C70.4377 32.2662 70.8319 33.6488 71.7052 35.1038C71.7392 35.1765 71.7956 35.3571 71.5655 35.819C71.3586 36.2111 71.2317 36.5953 71.003 36.7612C70.7741 36.9271 70.4653 37.1006 70.191 37.2285Z" fill="#010101"/>
<path d="M67.5648 31.5957C66.0559 32.2993 65.9623 32.8749 65.7544 33.5631C65.7196 33.727 66.1277 34.4235 67.0125 35.9026L67.2182 35.8067C67.2182 35.8067 66.8771 35.4336 66.6623 34.9131C66.4475 34.3927 66.5503 34.3743 66.425 34.2849C66.2656 34.1817 65.9694 34.0242 66.2679 33.5896C66.5661 33.155 67.41 33.2934 68.1988 32.9552C68.9647 32.5684 69.424 31.8223 69.9487 31.8732C70.4734 31.924 70.4038 32.2521 70.3804 32.4405C70.3568 32.6288 70.4484 32.5269 70.7091 33.0261C70.9696 33.5253 71.0362 34.0263 71.0362 34.0263L71.242 33.9304C70.6546 32.3126 70.4291 31.5902 70.3039 31.5007C69.6661 31.1478 69.085 30.9163 67.5648 31.5957ZM83.7333 47.3474C83.7333 47.3474 83.9895 49.0309 83.3814 49.9352C83.1532 49.9235 83.1081 49.7671 82.8461 49.6232C82.7664 49.5718 82.5836 49.5977 82.4813 49.5569C82.3787 49.5161 82.345 49.3839 82.1854 49.3402C82.0486 49.2858 82.014 49.3906 81.8885 49.3604C81.7519 49.306 81.6723 49.1952 81.5699 49.1545C81.5014 49.1272 81.3073 49.1883 81.2389 49.1609C81.0679 49.0928 79.9602 49.3434 79.8927 49.0793C79.8142 48.6724 79.8726 48.3201 79.8726 48.3201C79.8726 48.3201 79.9901 47.4378 80.4356 47.2594C80.8813 47.0812 81.3382 46.9864 81.465 46.6613C81.6033 46.3011 83.4397 46.5385 83.7333 47.3474Z" fill="#010101"/>
<path d="M75.7577 38.0022C75.7577 38.0022 77.0282 36.9663 78.4755 37.5034C79.9342 38.0646 80.4541 39.359 80.5193 40.2745C80.9179 40.4729 81.7827 41.1336 81.9266 42.3375C84.0695 42.9934 84.3802 45.3906 83.6766 47.4034C83.6766 47.4034 82.7678 46.2902 81.4535 46.8144C81.2728 46.3076 79.8571 46.4947 79.8399 44.9657C78.8692 45.1523 78.5978 44.5104 78.0984 43.7976C77.6217 43.0739 75.7577 38.0022 75.7577 38.0022Z" fill="#010101"/>
<path d="M75.5486 38.9275C75.5486 38.9275 76.7987 37.251 78.2573 37.8122C79.7159 38.3735 79.9622 39.6182 80.0273 40.5337C80.4259 40.7319 81.4393 41.3532 81.5716 42.5919C81.6162 42.8667 81.1132 43.1012 81.0417 43.9031C81.6957 42.9181 82.3353 42.7973 82.8693 43.4054C83.6989 44.3486 83.6014 45.9902 83.3238 47.0064C83.3125 46.9821 83.2783 46.9684 83.267 46.9442C83.3455 47.3511 83.5593 48.1084 83.2358 49.2051C83.0739 49.7535 82.777 49.8329 82.343 49.917C81.8292 50.0087 81.5672 49.8648 80.7573 49.7993C80.2896 49.7514 80.3708 49.3883 80.2689 49.1698C80.2463 49.1213 80.2579 49.0271 80.2814 48.898C80.2704 48.7552 80.3171 48.4972 80.4209 48.1827C80.4209 48.1827 80.5144 47.6071 80.9602 47.4287C81.4059 47.2505 81.8178 46.9403 81.8756 46.7655C81.4793 45.9157 80.5535 46.3178 80.1943 44.7119C80.1832 44.6284 80.241 44.4536 80.584 44.2346C79.9786 44.369 79.7159 44.462 79.1461 44.2549C78.7473 44.1158 78.383 43.8718 78.1105 43.4669C77.6226 42.7782 75.5486 38.9275 75.5486 38.9275Z" fill="#F0EFEF"/>
<path d="M70.0109 39.6474C69.7832 39.517 68.6216 38.8765 67.0915 39.117C66.6462 39.1768 66.5533 39.634 66.2779 40.058C66.1296 40.0385 65.5134 40.0303 65.3183 40.328C65.1231 40.6258 65.0196 40.8812 64.8017 41.1305C64.6305 41.1217 64.2648 41.2922 64.0242 41.5521C63.7722 41.7879 63.4168 42.2196 63.2768 43.0534C63.4893 44.2253 68.2482 41.0603 68.2482 41.0603L70.0109 39.6474Z" fill="#010101"/>
<path d="M70.0574 39.6257C69.2012 39.6998 68.8967 38.7482 67.2055 39.3595C66.874 39.4845 66.7928 39.8474 66.6434 40.124C66.8144 40.1921 67.0192 40.333 67.1783 40.4952C66.8594 40.3485 66.3464 40.2033 65.9465 40.3011C65.5697 40.3883 65.4655 40.7619 65.1903 41.1268C65.2927 41.1676 65.418 41.257 65.5774 41.3602C65.1554 41.2909 64.8929 41.3247 64.5377 41.6971C64.2857 41.9327 63.8387 42.4664 63.71 43.3245C63.9225 44.4964 68.2717 41.0495 68.2717 41.0495L70.0574 39.6257Z" fill="#8AC640"/>
<path d="M74.5361 38.0102C74.5361 38.0102 74.4115 37.7431 74.2755 37.5111C74.2528 37.4626 74.0134 37.4264 73.9907 37.3779L73.9224 37.3506C73.9224 37.3506 74.1863 36.9615 74.5173 36.9551C74.8596 36.9135 75.2122 37.2517 75.2122 37.2517C75.6475 36.8123 75.795 37.0095 76.1824 37.1835C76.6746 36.8061 76.8449 36.9927 77.437 37.3669C77.437 37.3669 76.9916 37.486 76.2593 38.0047C75.5384 38.4885 74.5247 37.9859 74.5361 38.0102Z" fill="#010101"/>
<path d="M74.3889 37.9313C74.3889 37.9313 74.4694 37.7458 74.4123 37.7429C74.5958 37.48 74.8596 37.1502 75.2348 37.5368C75.6701 37.0973 75.8632 37.3325 76.2505 37.5066C76.7435 36.8925 76.9702 37.2595 77.0953 37.4082C76.8895 37.5041 76.6038 37.667 76.2148 37.9074C75.4941 38.3913 74.3547 37.9176 74.3889 37.9313Z" fill="#8AC640"/>
<path d="M66.3326 40.9489C66.3326 40.9489 67.8621 40.8267 68.9256 40.2421C69.9778 39.6333 71.8072 38.662 73.1075 38.8242C73.1075 38.8242 73.9551 37.9558 75.0399 37.7752C76.1248 37.5943 78.7003 38.5216 79.0349 40.6119C79.0458 40.7547 78.8391 41.0875 78.5528 41.3688C78.5528 41.3688 79.1207 42.1089 79.1175 42.938C79.1031 43.7428 78.9831 45.3358 79.7753 47.0944C79.8884 47.3964 80.1257 48.0246 80.2157 48.3373C78.3985 49.0962 75.3266 49.6713 72.6515 50.9779C72.5272 50.6518 72.4595 50.4468 72.3352 50.1205L72.4036 50.0886C71.8929 49.3513 71.6547 48.9599 71.2344 48.4169C70.0939 48.2394 68.8624 47.9861 67.4852 47.0617C66.1306 46.1268 66.3326 40.9489 66.3326 40.9489ZM81.271 49.9439C81.271 49.9439 85.2019 54.6728 84.5858 57.7089C84.5858 57.7089 85.324 58.6356 85.2733 60.0189C85.4082 60.5471 85.4976 61.0375 85.6555 61.5549C86.2979 63.7086 86.1911 64.7929 87.5596 68.0858L86.1765 68.7013C86.1765 68.7013 84.9296 66.4453 83.8721 65.4309C83.2697 64.8548 81.7533 64.409 81.3578 63.4408C81.0638 62.6912 80.9179 62.0203 81.6312 60.5053C81.066 59.0546 79.1172 58.3376 76.8777 52.9975L81.271 49.9439Z" fill="#010101"/>
<path d="M80.7574 49.9174C82.278 52.2231 84.8333 55.4948 84.1393 58.0055C84.4421 58.4189 84.6688 58.885 84.8073 59.3788C84.8975 59.6914 84.9532 60.0497 84.9974 60.4428C85.0405 61.1321 85.3452 62.0245 85.5144 62.5663C86.1568 64.72 86.2022 64.8172 87.5707 68.1102L86.1875 68.7256C86.1875 68.7256 84.9406 66.4695 83.8832 65.4553C83.2807 64.8791 82.426 64.5387 81.9388 63.6131C81.5535 62.9061 81.3543 61.2256 82.5201 60.741C81.0817 57.8354 80.073 59.015 76.8772 53.0568L80.7574 49.9174ZM66.3324 40.949C66.3324 40.949 66.9146 40.8844 67.4859 40.6771C68.0572 40.4697 68.6291 40.144 69.1435 39.8745C70.1957 39.2658 71.6937 38.4193 73.0169 38.5708C73.0169 38.5708 73.4979 38.11 74.1379 37.8707C74.4235 37.7671 74.8112 37.8819 75.1765 37.8298C76.3069 37.6277 78.0936 38.9522 78.4064 40.7573C78.4173 40.9001 78.0406 40.9279 77.7314 41.2199C77.9584 41.5279 78.3666 42.2834 78.3855 43.2795C78.3819 44.2862 78.3771 45.589 79.4194 47.5858C76.9622 48.5837 75.8085 48.9149 73.374 49.9023C72.7494 49.0998 72.1932 48.2656 71.9553 47.8149C72.1962 47.4957 72.3111 47.265 72.4268 46.8562C71.7977 47.2974 71.5005 47.3768 70.9757 47.3259C70.451 47.275 69.3571 46.8392 68.7536 46.5C68.6852 46.4727 68.8074 47.3911 68.2472 47.682C67.8942 47.4624 68.344 46.1589 68.0255 45.8937C66.8766 44.9219 66.3324 40.949 66.3324 40.949Z" fill="#F0EFEF"/>
<path d="M80.0005 47.8171C80.0005 47.8171 80.4538 48.6698 80.5557 48.8883C80.6689 49.1311 81.1914 49.774 81.3727 50.1034C81.3364 50.6819 80.7258 52.2376 78.9179 53.5536C77.1554 54.9074 73.0208 52.8453 73.0208 52.8453C72.9422 52.4977 72.7406 51.4684 72.6743 50.9083C72.6745 50.8491 72.6636 50.7063 72.641 50.6578C72.6996 50.2462 80.0005 47.8171 80.0005 47.8171Z" fill="#010101"/>
<path d="M79.5314 48.1246C79.8144 48.7316 80.1096 49.126 80.3594 49.4825C80.802 50.1333 81.2 50.5093 81.4151 50.9706C82.0716 52.3786 80.2209 52.946 78.7802 53.677C77.0178 55.031 73.8205 52.5316 73.8205 52.5316C73.6973 51.9092 73.4944 51.2355 73.4511 50.6053C73.338 50.3033 73.214 49.9179 73.1575 49.7373C75.9468 48.4366 77.9923 47.6897 79.192 47.2778C79.3624 47.5236 79.5318 48.0062 79.5314 48.1246Z" fill="#F0EFEF"/>
<path d="M78.7968 52.28C78.7968 52.28 76.2492 49.9802 73.0102 52.5252C73.3529 55.528 73.5793 59.058 75.8395 61.9351C75.5945 63.3795 75.0088 64.3917 75.9484 66.4067C76.888 68.4218 77.138 68.719 77.138 68.719L79.8809 67.6175C79.8809 67.6175 80.195 66.0228 79.9378 64.5761C79.8595 64.1692 79.6453 63.4711 79.2258 62.7505C79.2492 62.5622 79.4795 62.0411 79.2196 61.3642C79.2196 61.3642 80.1831 60.0282 80.1112 57.9041C80.0727 55.9709 79.2444 54.6724 78.7968 52.28Z" fill="#010101"/>
<path d="M78.7973 52.2798C78.6043 52.0448 76.4671 49.8492 73.4456 52.2038C74.0831 58.764 75.9016 60.7535 76.6741 61.6346C76.1742 64.0844 75.7381 64.7607 77.7334 68.3231L79.5168 67.4915C79.6944 65.7239 79.6396 65.1286 78.8362 63.2865C78.8023 63.2137 78.6527 63.5494 78.583 63.8775C78.3693 63.0609 78.69 62.7341 78.7721 62.1342C78.8187 61.876 78.7971 61.5314 78.616 61.1429C79.6843 59.2556 79.6108 57.5459 79.2631 55.905C79.0621 54.7575 78.6009 52.933 78.7973 52.2798Z" fill="#F0EFEF"/>
<path d="M71.3273 51.0043C71.3273 51.0043 71.9559 50.7407 72.5953 50.679C73.2117 50.628 73.2683 50.7493 73.5873 50.8963C73.9063 51.0433 74.579 51.1728 74.6574 51.5795C74.7022 51.7952 74.6106 51.897 74.5298 52.1416C74.4952 52.2464 74.2638 53.0636 74.1835 53.1897C74.1375 53.2702 74.08 53.3858 74.0341 53.4663L73.8044 53.869C73.6324 54.0971 73.5063 54.2445 73.2435 54.3374C73.2435 54.3374 72.6606 54.5797 72.1023 54.3376C72.1023 54.3376 71.966 54.1646 72.0122 54.025C72.0122 54.025 71.3282 53.8118 71.0552 53.5844C70.7822 53.3573 70.5897 52.9445 70.5794 52.6833C70.5231 52.4433 71.1317 51.4206 71.3273 51.0043ZM82.9144 74.3605L83.1289 74.9995C83.1289 74.9995 83.0476 75.3624 81.5045 76.0525C79.9385 76.7532 79.2893 76.4353 79.0276 76.2321L78.6418 75.6435C78.6418 75.6435 78.724 75.0436 78.7925 75.0116C79.3181 74.8256 81.3726 74.7544 82.652 74.3941C82.766 74.341 82.8115 74.3789 82.9144 74.3605ZM85.6521 71.5764C85.7766 71.8434 85.7537 71.8541 85.8782 72.1212C86.2544 72.2118 86.9971 72.0133 88.2888 71.3813C90.1638 70.4479 92.2299 70.2825 94.1978 68.8919L94.0169 68.4442L93.7999 68.516L85.8808 71.4106L85.6521 71.5764Z" fill="#010101"/>
<path d="M87.7171 71.6481L88.2886 71.3816C89.5007 70.7573 90.8026 70.5049 92.0939 69.9914C92.7456 69.6579 93.4894 69.1041 93.1831 68.6263L86.4183 71.0713C86.2447 71.7139 86.723 71.9638 87.7171 71.6481ZM75.4976 64.9025C75.7713 64.9522 77.5735 65.1759 79.7803 63.999C79.9496 64.4817 80.3914 65.3693 80.1213 67.4164C79.9806 68.4279 80.1801 69.9901 80.8926 71.7565C81.0966 72.1343 81.4608 72.3782 81.4242 73.016C81.6627 73.2889 82.3229 73.7496 82.687 74.0527C83.051 74.356 83.3463 74.7503 82.1458 75.3397C80.9225 75.9396 78.8655 76.7215 78.6645 75.5739C78.5527 74.9758 78.6809 74.2362 78.6248 73.9962C78.5686 73.7564 78.2629 73.101 78.4477 72.4827C78.2247 71.1089 77.5669 69.9969 76.989 68.9363C76.3425 67.8484 75.4705 66.0383 75.4976 64.9025ZM68.3971 44.1242C68.9449 41.0607 66.7127 39.8554 64.3668 41.629C63.4169 42.338 62.7276 43.6054 63.3155 45.0454C62.9952 45.2538 62.2406 45.6648 62.5538 47.3514C62.8001 48.6553 62.7419 48.9484 62.4876 49.7763C62.3372 50.349 63.0992 51.0281 63.6337 51.5179C65.4533 53.2114 68.1502 52.1902 70.6466 52.9474C71.1617 52.5002 71.4507 51.5084 71.4186 50.9618C69.0607 49.7853 69.0411 48.9078 67.9938 48.2139C68.5208 47.6724 69.5425 46.0434 68.3971 44.1242Z" fill="#010101"/>
<path d="M68.0095 44.1276C68.0329 43.9392 68.0458 43.5491 68.0579 43.3956C68.0695 43.3606 68.536 43.7046 68.5476 43.6697C68.6667 42.3136 68.1022 40.6851 67.3254 40.87C67.154 40.9203 66.823 40.9862 66.5261 41.0062C65.9897 41.0494 65.5782 41.2413 64.9144 41.7283C63.999 42.3915 63.3554 43.6375 63.8762 44.7544C63.9101 44.8272 64.7206 44.7152 65.3454 45.5176C64.7646 45.1677 63.9097 44.8864 63.4275 45.7025C62.9107 46.5641 63.8428 47.5482 63.4029 49.2312C63.2523 49.8039 63.5246 50.2682 64.3431 51.0687C65.6508 52.3211 68.8479 51.8352 71.059 52.5776C71.3455 52.237 71.4158 51.7313 71.4629 51.3547C69.902 50.6934 68.9922 49.817 68.3328 49.1786C67.5482 48.451 66.8989 48.1331 65.7816 47.8263C66.2724 47.8043 66.6718 47.825 66.9225 47.8854C67.1961 47.9351 67.5047 47.8209 67.7338 47.5957C68.5474 46.7733 68.394 45.0713 68.0095 44.1276Z" fill="#F0EFEF"/>
<path d="M78.1354 39.8787C78.497 40.8332 77.6418 40.6704 77.2196 40.6604C76.3865 40.6646 75.5987 40.766 74.7985 41.1391C73.9983 41.5122 73.0034 42.0648 72.2251 42.7234C71.1603 43.6632 70.7831 43.8096 70.0985 43.774C69.4027 43.7143 68.0803 43.3851 68.0803 43.3851C68.0803 43.3851 68.1706 43.6386 68.5464 43.8476C69.0247 44.0975 69.9143 44.2738 70.953 44.1736C71.4553 44.1168 71.753 43.8596 72.0964 43.5813C73.8822 42.0984 75.9859 40.9991 78.3355 41.3223C78.4496 41.3281 78.7018 41.0332 78.7371 40.7507C78.7727 40.35 78.1354 39.8787 78.1354 39.8787Z" fill="#010101"/>
<path d="M72.0466 53.9791C72.2861 54.0153 72.5487 53.9815 72.902 54.0827C72.902 54.0827 72.6963 54.1787 72.5597 54.1242C72.4113 54.1047 72.0808 53.9929 72.0466 53.9791Z" fill="#0A1825"/>
<path d="M69.676 31.6458C69.5056 31.4593 68.8213 31.3053 67.6554 31.849C66.3979 32.4353 66.2246 33.0187 66.3037 33.2478C66.3377 33.3206 66.6085 34.1403 66.7327 34.4665C66.7327 34.4665 66.9139 34.8549 67.2083 35.4269C67.4124 35.8047 67.6057 35.9805 67.8892 36.4691C68.1839 36.9818 68.4797 37.2577 68.9349 37.5776C69.0832 37.597 69.2086 37.6273 69.3343 37.5983C69.8368 37.4821 70.6484 37.1332 71.0262 36.8094C71.2436 36.6193 71.3487 36.0087 71.2248 35.564C71.0784 35.0116 71 34.6047 70.8758 34.2785C70.7744 33.9417 70.4689 33.2268 70.4011 33.0219C70.2208 32.4559 69.7214 31.6837 69.676 31.6458Z" fill="#F0EFEF"/>
<path d="M81.2684 62.7731C81.2684 62.7731 82.7406 62.7665 85.5092 60.8843C85.5092 60.8843 86.7691 65.7945 88.2106 67.871C88.2106 67.871 88.8709 68.2726 92.2724 68.046C92.2724 68.046 93.7112 67.7889 93.9826 68.4901C93.9826 68.4901 94.0962 68.6144 92.5189 69.2907C90.9416 69.967 89.3424 70.3581 88.3136 70.8378C87.2848 71.3176 86.21 71.8778 85.88 71.6476C85.5384 71.4522 85.4388 70.5823 85.5322 70.0066C85.6374 69.3961 85.3873 69.0987 84.9796 68.2841C83.9033 66.1554 81.307 64.6468 81.2684 62.7731Z" fill="#010101"/>
<path d="M81.209 63.3032C81.1622 63.6206 81.7752 64.4578 82.4227 65.2495C83.0702 66.0412 83.8224 66.3408 84.6272 67.7684C85.4207 69.1718 85.5342 69.3554 85.5417 70.3863C85.5492 71.4171 85.7973 72.2474 87.1574 71.6428C88.5176 71.0381 89.2267 70.6483 90.7004 70.2272C92.1741 69.806 92.6881 69.655 93.3861 69.1818C94.084 68.7086 94.1193 68.3668 93.6862 68.2733C93.2528 68.1798 91.8022 68.5312 91.0042 68.312C90.2517 68.1309 88.3574 68.1274 88.2441 67.9439C87.8698 67.3203 86.7375 64.9517 86.4895 64.1216C86.2415 63.2912 85.8807 62.0999 85.7907 61.7872C85.7006 61.4745 85.7933 61.0766 85.4499 61.355C85.1065 61.6332 83.7452 62.5341 82.6138 62.973C81.4825 63.412 81.2437 63.1982 81.209 63.3032Z" fill="#8AC640"/>
<path opacity="0.3" d="M85.4846 70.4428C85.9638 70.4558 86.6034 70.335 87.0378 70.1324C87.0378 70.1324 87.2513 71.0084 87.7292 71.3765C88.207 71.7449 85.9907 72.4237 85.9907 72.4237L85.0956 70.7425L85.4846 70.4428ZM92.5169 69.7056C92.8261 69.4135 92.8739 68.8593 92.3842 68.5852C91.8716 68.3217 91.5633 68.3768 91.9635 68.1607C92.3638 67.9445 94.3255 68.2119 94.3255 68.2119L93.8991 69.327L92.5169 69.7056ZM81.5819 64.2821C82.1984 64.2312 83.0212 63.9066 83.6958 63.5624C84.3703 63.2184 85.3538 62.6414 85.9038 62.0895C86.4535 61.5376 86.4169 62.1753 86.4169 62.1753L86.2209 62.7101C86.2209 62.7101 85.522 63.4794 84.0932 64.1161C82.4129 64.8701 81.8193 64.9105 81.8193 64.9105L81.5819 64.2821ZM82.1937 65.4748C82.8103 65.4238 83.633 65.0993 84.3076 64.7551C84.9821 64.4111 85.8967 63.9846 86.4352 63.4083C86.6642 63.1834 86.6967 63.6706 86.6967 63.6706L86.6842 63.9424C86.6842 63.9424 85.9511 64.6982 84.545 65.3241C82.8648 66.0781 82.4996 66.071 82.4996 66.071L82.1937 65.4748Z" fill="#010101"/>
<path d="M72.7493 49.1593C72.8285 49.3293 75.0534 49.4444 76.127 49.1803C77.2007 48.916 79.1678 47.7624 79.4539 47.5403L79.5666 47.9016C79.5666 47.9016 77.3015 49.4308 75.1777 49.7709C73.0538 50.111 73.203 49.8936 73.203 49.8936L72.7493 49.1593Z" fill="#010101"/>
<path d="M78.5877 71.6489C78.93 71.6668 80.0377 71.4753 80.6099 71.0312C80.6899 70.9642 79.8287 69.3559 79.7293 68.486C79.6083 67.2714 79.8065 66.1445 79.2204 64.1716C78.2148 64.5222 76.993 64.7668 76.3307 64.8391C76.7087 67.5595 77.9112 69.4815 78.5877 71.6489ZM80.8329 72.4642C81.0156 72.4381 81.2204 72.579 81.2097 72.4364C81.1991 72.1752 80.7553 71.8798 80.5965 71.5991L80.5852 71.5748C80.2889 71.4766 78.8829 72.1026 79.0196 72.157C79.0068 72.5472 78.7327 72.616 78.9357 73.2898C79.0371 73.6266 79.2784 73.1891 79.6099 73.0049C79.1964 73.7297 78.7482 74.6187 78.8602 75.1575C79.04 75.9012 79.3592 75.9889 80.215 76.0333C80.8774 75.9018 81.5974 75.5956 82.1348 75.3155C82.6955 74.9061 82.6627 74.5373 82.2759 74.1855C81.6957 73.658 81.1166 72.8935 80.8329 72.4642Z" fill="#F0EFEF"/>
<path d="M66.3785 40.8093C67.3481 40.9188 68.3351 40.2896 68.7124 40.0841C68.8039 40.0414 69.6473 39.4624 69.7043 39.4653C69.807 39.447 69.8409 39.5198 69.8409 39.5198C69.8409 39.5198 69.5886 39.8739 68.8339 40.2848C68.1249 40.6745 67.2335 41.0311 66.6403 41.0123C65.9441 41.0119 66.3785 40.8093 66.3785 40.8093ZM74.367 37.6458C74.5494 37.6788 75.6109 37.6273 76.2034 37.883C76.7275 38.1117 76.5333 38.1726 76.4193 38.1075C76.2713 38.0287 75.3248 37.8494 74.9939 37.856C74.663 37.8626 74.218 37.8039 74.1954 37.7554C74.1728 37.7069 74.367 37.6458 74.367 37.6458Z" fill="#010101"/>
<path d="M71.177 51.3996C71.8174 51.0419 72.5826 50.892 73.2434 51.1749C73.5852 51.3111 74.0755 51.4075 74.1431 51.6716C74.177 51.7444 74.1303 52.0027 74.0841 52.2016C74.0608 52.3306 73.9569 52.645 73.9222 52.75C73.8648 52.8654 73.6693 53.2818 73.6233 53.3623C73.5774 53.4429 73.5425 53.6071 73.4852 53.6632C73.3134 53.8913 73.0165 53.9114 72.7313 53.8967C72.4461 53.8818 72.7091 53.7296 72.367 53.6527C71.5347 53.4792 71.0444 53.3234 70.8771 52.3079C70.8206 52.1273 70.9815 51.8158 71.177 51.3996Z" fill="#F0EFEF"/>
<path opacity="0.4" d="M62.7543 48.5587C61.1042 50.3922 57.1592 55.6015 56.0694 57.1441C57.6889 57.3939 59.1887 59.1181 60.3113 61.0479C60.4247 61.2316 60.5269 61.3909 60.6403 61.5743C60.7424 61.7337 60.8219 61.8444 60.8787 61.9067C60.89 61.931 60.9126 61.9795 60.9468 61.993C60.4731 57.4553 63.3724 51.0785 63.4082 50.6775C63.4317 50.4893 62.9316 49.954 62.9687 49.1979C63.0179 48.2288 63.6597 47.5157 62.7543 48.5587ZM76.1944 64.6073C76.2045 61.8834 75.2311 59.7361 74.0421 57.2461C73.5553 56.2021 73.5734 54.3906 73.4002 54.9739C72.7868 57.2402 70.7611 61.9092 68.3483 63.2411C71.7897 61.4886 74.0332 62.7184 76.1944 64.6073Z" fill="#010101"/>
<path d="M55.0201 60.1455C55.8591 58.5424 60.8263 51.5858 62.2005 50.2946C63.5632 48.9793 62.7546 48.5582 62.7546 48.5582C62.7546 48.5582 57.5739 54.6391 54.8528 59.0707" fill="#010101"/>
<path opacity="0.4" d="M70.9528 44.174C70.3251 44.2007 70.2193 45.0482 70.6508 45.6155C71.0825 46.1827 72.6453 46.311 73.6522 48.6495C74.4895 50.5646 74.4631 51.5226 74.4631 51.5226L73.0509 50.7625C73.0509 50.7625 71.691 48.2043 71.2127 47.9545C70.7344 47.7046 69.4686 47.4376 68.933 47.2441C68.3974 47.0504 68.9483 46.2024 68.5856 45.5439C68.2342 44.9097 68.0573 43.3962 68.0573 43.3962L70.9528 44.174ZM78.9536 53.0345C79.757 54.8766 81.4024 57.3904 82.1624 58.6026C82.9224 59.8147 83.1735 59.8159 83.0794 60.5692C82.974 61.2982 82.9241 62.4446 82.9241 62.4446L81.2785 63.0345C81.2785 63.0345 81.7436 60.7486 81.6648 60.4011C81.5863 60.0536 79.7568 57.9805 79.7568 57.9805L78.9536 53.0345ZM67.9881 37.4578C68.6591 38.061 69.2063 38.2197 69.9254 38.1505C70.3592 38.1256 71.8901 37.6482 72.1447 36.7017C72.249 36.2689 71.6927 35.4938 71.6927 35.4938L70.9102 37.2182L68.9913 37.6993L68.5252 37.2368L67.9881 37.4578Z" fill="#010101"/>
<path d="M68.9062 39.0688C69.6932 39.2044 71.3604 38.8998 71.8059 38.7808C72.2626 38.6859 72.6653 37.8184 72.9175 37.5235C73.1813 37.1936 73.7304 36.8192 74.7219 37.155C74.8245 37.1959 74.743 37.6181 74.743 37.6181C74.7088 37.6045 74.5716 37.6684 74.3434 37.6566C74.1153 37.6448 73.9212 37.6465 73.6582 37.7988C72.5829 38.4775 72.5925 38.9755 71.4733 39.2017C70.3541 39.4279 70.0121 39.3511 69.0517 39.858" fill="#8AC640"/>
<path d="M68.9187 38.9668C69.2962 39.0318 69.8969 38.9917 70.468 38.9176C71.0184 38.8462 71.5273 38.7452 71.7564 38.6861L71.7776 38.6805L71.7828 38.6793C71.8731 38.6605 71.9689 38.6013 72.069 38.5075C72.1683 38.4144 72.2651 38.2937 72.3582 38.1631C72.4513 38.0325 72.538 37.8959 72.619 37.7706C72.698 37.6485 72.7734 37.534 72.841 37.4545C72.9821 37.2783 73.1997 37.0899 73.5146 36.9905C73.8256 36.8923 74.2241 36.8835 74.7254 37.0488L74.7493 37.0568L74.7543 37.0586C74.7995 37.0766 74.8261 37.1127 74.8409 37.1429C74.8555 37.1726 74.863 37.2048 74.8672 37.2331C74.8758 37.2901 74.8746 37.3559 74.8706 37.4137C74.8666 37.4728 74.8592 37.5299 74.8529 37.5717C74.8498 37.5928 74.8468 37.6102 74.8447 37.6226C74.8436 37.6287 74.8427 37.6336 74.8421 37.637C74.8418 37.6387 74.8415 37.64 74.8414 37.641C74.8413 37.6415 74.8412 37.6418 74.8411 37.6421C74.8411 37.6422 74.8411 37.6424 74.8411 37.6424C74.8411 37.6425 74.8411 37.6425 74.8411 37.6425L74.841 37.6426C74.8409 37.6426 74.8373 37.6417 74.7436 37.6179L74.841 37.6426C74.8355 37.6715 74.8181 37.6958 74.7934 37.7095C74.7746 37.7199 74.7529 37.7233 74.7317 37.7197C74.7291 37.72 74.7255 37.7206 74.7204 37.7215C74.7112 37.7232 74.7003 37.7255 74.6862 37.7284C74.6725 37.7313 74.6565 37.7346 74.6388 37.738C74.5673 37.7517 74.4679 37.7659 74.3436 37.7595C74.1235 37.7481 73.9511 37.7502 73.7116 37.8885C73.1831 38.2223 72.9271 38.5068 72.6488 38.75C72.3663 38.9969 72.0746 39.1862 71.4972 39.3029C70.3622 39.5322 70.0451 39.4517 69.1004 39.9503L69.0122 39.7827C69.9884 39.2675 70.3472 39.3231 71.4507 39.1001C71.9925 38.9906 72.2556 38.8178 72.5169 38.5895C72.7821 38.3577 73.0586 38.0542 73.6044 37.7096L73.6075 37.7078C73.8932 37.5424 74.1086 37.5411 74.3443 37.5533L74.3444 37.5533C74.4483 37.5587 74.5316 37.5469 74.5943 37.5349C74.6102 37.5319 74.6247 37.5288 74.6384 37.5259C74.6449 37.5246 74.6515 37.5232 74.6579 37.5219C74.6633 37.4845 74.6692 37.4373 74.6725 37.3897C74.6761 37.3368 74.676 37.2893 74.671 37.2556C74.6703 37.2512 74.6696 37.2473 74.6688 37.2439C74.2031 37.0911 73.8475 37.1039 73.5802 37.1883C73.3071 37.2745 73.1185 37.4378 72.9957 37.5914C72.995 37.5922 72.9944 37.593 72.9937 37.5938C72.9356 37.6618 72.8667 37.7655 72.7855 37.8911C72.7058 38.0143 72.616 38.1558 72.5198 38.2908C72.4236 38.4258 72.3183 38.5581 72.2058 38.6636C72.095 38.7675 71.9703 38.8517 71.8335 38.8811C71.6047 38.9421 71.0735 39.0483 70.5015 39.1225C69.9308 39.1966 69.3044 39.2409 68.895 39.1704L68.9187 38.9668ZM74.7357 37.7192C74.7368 37.7192 74.7369 37.7191 74.7359 37.7192C74.7358 37.7192 74.7358 37.7192 74.7357 37.7192Z" fill="#010101"/>
<path d="M68.735 39.2374C69.648 39.2255 71.281 38.9073 71.7378 38.8126C72.1946 38.7179 72.6538 37.9716 72.8721 37.6038C73.2626 36.9488 74.1413 36.9233 74.6768 37.1762C75.0298 37.3366 75.2007 37.4638 75.2346 37.5367C75.2799 37.6337 74.9603 37.6646 74.9603 37.6646C74.7663 37.6664 74.572 37.7275 74.3896 37.6942C74.1614 37.6825 73.9105 37.6221 73.6476 37.7742C72.5724 38.4531 72.5361 38.9723 71.4399 39.1879C70.3436 39.4035 69.9902 39.3023 68.9725 39.8654" fill="#8AC640"/>
<path d="M75.7655 63.5657C75.6972 63.5384 75.7659 63.4473 75.7202 63.4686C75.4231 63.6072 74.8983 63.5563 74.511 63.323C72.8261 62.2763 70.9215 61.9526 68.3491 63.2407C64.4848 65.1608 62.1376 64.1865 60.3235 61.0717C59.337 59.3741 58.0759 57.8635 56.6857 57.3294L56.3068 57.9496C57.8112 58.4303 58.8901 59.8485 60.1263 61.9026C62.0092 64.9853 65.1803 65.3392 68.0837 64.0444C71.1013 62.6963 72.4815 62.8508 74.349 63.9309C74.9525 64.2701 75.4434 64.2481 75.7973 64.1717L75.7655 63.5657Z" fill="#010101"/>
<path opacity="0.4" d="M79.0945 43.0082C79.3329 43.3403 79.844 43.9591 80.3683 44.1284C80.6077 44.2237 80.6531 44.2615 80.516 44.3255C80.3787 44.3895 79.3501 44.8101 79.3501 44.8101L78.8381 44.4282L79.0945 43.0082Z" fill="#010101"/>
</g>
<defs>
<filter id="filter0_d_3_119" x="0" y="2.21384" width="143.659" height="120.78" filterUnits="userSpaceOnUse" color-interpolation-filters="sRGB">
<feFlood flood-opacity="0" result="BackgroundImageFix"/>
<feColorMatrix in="SourceAlpha" type="matrix" values="0 0 0 0 0 0 0 0 0 0 0 0 0 0 0 0 0 0 127 0" result="hardAlpha"/>
<feMorphology radius="1" operator="dilate" in="SourceAlpha" result="effect1_dropShadow_3_119"/>
<feOffset dy="8"/>
<feGaussianBlur stdDeviation="8"/>
<feComposite in2="hardAlpha" operator="out"/>
<feColorMatrix type="matrix" values="0 0 0 0 0.00392157 0 0 0 0 0.00392157 0 0 0 0 0.00392157 0 0 0 0.14 0"/>
<feBlend mode="normal" in2="BackgroundImageFix" result="effect1_dropShadow_3_119"/>
<feBlend mode="normal" in="SourceGraphic" in2="effect1_dropShadow_3_119" result="shape"/>
</filter>
<clipPath id="clip0_3_119">
<rect width="39" height="48" fill="white" transform="translate(40.9581 42.8228) rotate(-25)"/>
</clipPath>
</defs>
</svg>
